<?xml version="1.0" encoding="UTF-8"?><svg xmlns="http://www.w3.org/2000/svg" viewBox="0 0 2102.91 1313"><defs><style>.cls-1{fill:none;stroke:#fff;stroke-miterlimit:10;stroke-width:5px;}.cls-2{opacity:.99;}.cls-3{fill:#fbdbb2;}</style></defs><g id="Layer_1"><rect class="cls-3" x="30.45" width="2042" height="1313"/></g><g id="Layer_3"><g class="cls-2"><polyline class="cls-1" points="1.45 140.5 85.45 200.5 169.45 140.5 253.44 200.5 337.44 140.5 421.44 200.5 505.44 140.5 589.44 200.5 673.44 140.5 757.43 200.5 841.43 140.5 925.43 200.5 1009.43 140.5 1093.43 200.5 1177.43 140.5 1261.42 200.5 1345.42 140.5 1429.43 200.5 1513.43 140.5 1597.43 200.5 1681.43 140.5 1765.43 200.5 1849.43 140.5 1933.44 200.5 2017.45 140.5 2101.45 200.5"/></g><g class="cls-2"><polyline class="cls-1" points="1.45 256.5 85.45 316.5 169.45 256.5 253.44 316.5 337.44 256.5 421.44 316.5 505.44 256.5 589.44 316.5 673.44 256.5 757.43 316.5 841.43 256.5 925.43 316.5 1009.43 256.5 1093.43 316.5 1177.43 256.5 1261.42 316.5 1345.42 256.5 1429.43 316.5 1513.43 256.5 1597.43 316.5 1681.43 256.5 1765.43 316.5 1849.43 256.5 1933.44 316.5 2017.45 256.5 2101.45 316.5"/></g><g class="cls-2"><polyline class="cls-1" points="1.45 372.5 85.45 432.5 169.45 372.5 253.44 432.5 337.44 372.5 421.44 432.5 505.44 372.5 589.44 432.5 673.44 372.5 757.43 432.5 841.43 372.5 925.43 432.5 1009.43 372.5 1093.43 432.5 1177.43 372.5 1261.42 432.5 1345.42 372.5 1429.43 432.5 1513.43 372.5 1597.43 432.5 1681.43 372.5 1765.43 432.5 1849.43 372.5 1933.44 432.5 2017.45 372.5 2101.45 432.5"/></g><g class="cls-2"><polyline class="cls-1" points="1.45 488.5 85.45 548.5 169.45 488.5 253.44 548.5 337.44 488.5 421.44 548.5 505.44 488.5 589.44 548.5 673.44 488.5 757.43 548.5 841.43 488.5 925.43 548.5 1009.43 488.5 1093.43 548.5 1177.43 488.5 1261.42 548.5 1345.42 488.5 1429.43 548.5 1513.43 488.5 1597.43 548.5 1681.43 488.5 1765.43 548.5 1849.43 488.5 1933.44 548.5 2017.45 488.5 2101.45 548.5"/></g><g class="cls-2"><polyline class="cls-1" points="1.45 604.5 85.45 664.5 169.45 604.5 253.44 664.5 337.44 604.5 421.44 664.5 505.44 604.5 589.44 664.5 673.44 604.5 757.43 664.5 841.43 604.5 925.43 664.5 1009.43 604.5 1093.43 664.5 1177.43 604.5 1261.42 664.5 1345.42 604.5 1429.43 664.5 1513.43 604.5 1597.43 664.5 1681.43 604.5 1765.43 664.5 1849.43 604.5 1933.44 664.5 2017.45 604.5 2101.45 664.5"/></g><g class="cls-2"><polyline class="cls-1" points="1.45 720.5 85.45 780.5 169.45 720.5 253.44 780.5 337.44 720.5 421.44 780.5 505.44 720.5 589.44 780.5 673.44 720.5 757.43 780.5 841.43 720.5 925.43 780.5 1009.43 720.5 1093.43 780.5 1177.43 720.5 1261.42 780.5 1345.42 720.5 1429.43 780.5 1513.43 720.5 1597.43 780.5 1681.43 720.5 1765.43 780.5 1849.43 720.5 1933.44 780.5 2017.45 720.5 2101.45 780.5"/></g><g class="cls-2"><polyline class="cls-1" points="1.45 836.5 85.45 896.5 169.45 836.5 253.44 896.5 337.44 836.5 421.44 896.5 505.44 836.5 589.44 896.5 673.44 836.5 757.43 896.5 841.43 836.5 925.43 896.5 1009.43 836.5 1093.43 896.5 1177.43 836.5 1261.42 896.5 1345.42 836.5 1429.43 896.5 1513.43 836.5 1597.43 896.5 1681.43 836.5 1765.43 896.5 1849.43 836.5 1933.44 896.5 2017.45 836.5 2101.45 896.5"/></g><g class="cls-2"><polyline class="cls-1" points="1.45 952.5 85.45 1012.5 169.45 952.5 253.44 1012.5 337.44 952.5 421.44 1012.5 505.44 952.5 589.44 1012.5 673.44 952.5 757.43 1012.5 841.43 952.5 925.43 1012.5 1009.43 952.5 1093.43 1012.5 1177.43 952.5 1261.42 1012.5 1345.42 952.5 1429.43 1012.5 1513.43 952.5 1597.43 1012.5 1681.43 952.5 1765.43 1012.5 1849.43 952.5 1933.44 1012.5 2017.45 952.5 2101.45 1012.5"/></g><g class="cls-2"><polyline class="cls-1" points="1.45 1068.5 85.45 1128.5 169.45 1068.5 253.44 1128.5 337.44 1068.5 421.44 1128.5 505.44 1068.5 589.44 1128.5 673.44 1068.5 757.43 1128.5 841.43 1068.5 925.43 1128.5 1009.43 1068.5 1093.43 1128.5 1177.43 1068.5 1261.42 1128.5 1345.42 1068.5 1429.43 1128.5 1513.43 1068.5 1597.43 1128.5 1681.43 1068.5 1765.43 1128.5 1849.43 1068.5 1933.44 1128.5 2017.45 1068.5 2101.45 1128.5"/></g></g></svg>