<?xml version="1.0" encoding="UTF-8"?><svg id="Layer_1" xmlns="http://www.w3.org/2000/svg" viewBox="0 0 2159 1405"><defs><style>.cls-1{stroke:#181887;stroke-width:3px;}.cls-1,.cls-2{stroke-miterlimit:10;}.cls-1,.cls-2,.cls-3{fill:none;}.cls-2{stroke:#d80707;stroke-width:5px;}</style></defs><line class="cls-2" x1="256" x2="256" y2="1405"/><line class="cls-3" y1="305" x2="43" y2="303"/><line class="cls-1" x1="21" y1="245.5" x2="2098" y2="245.5"/><line class="cls-1" x1="34" y1="304.5" x2="2111" y2="304.5"/><line class="cls-1" x1="28" y1="362.5" x2="2105" y2="362.5"/><line class="cls-1" x1="41" y1="421.5" x2="2118" y2="421.5"/><line class="cls-1" x1="31" y1="479.5" x2="2108" y2="479.5"/><line class="cls-1" x1="44" y1="538.5" x2="2121" y2="538.5"/><line class="cls-1" x1="38" y1="596.5" x2="2115" y2="596.5"/><line class="cls-1" x1="51" y1="655.5" x2="2128" y2="655.5"/><line class="cls-1" x1="26" y1="702.5" x2="2103" y2="702.5"/><line class="cls-1" x1="39" y1="761.5" x2="2116" y2="761.5"/><line class="cls-1" x1="33" y1="819.5" x2="2110" y2="819.5"/><line class="cls-1" x1="46" y1="878.5" x2="2123" y2="878.5"/><line class="cls-1" x1="36" y1="936.5" x2="2113" y2="936.5"/><line class="cls-1" x1="49" y1="995.5" x2="2126" y2="995.5"/><line class="cls-1" x1="43" y1="1053.5" x2="2120" y2="1053.5"/><line class="cls-1" x1="56" y1="1112.5" x2="2133" y2="1112.5"/><line class="cls-1" x1="69" y1="1171.5" x2="2146" y2="1171.5"/><line class="cls-1" x1="82" y1="1230.5" x2="2159" y2="1230.5"/></svg>